<?xml version="1.0" standalone="no"?>
<!DOCTYPE svg PUBLIC "-//W3C//DTD SVG 20010904//EN"
 "http://www.w3.org/TR/2001/REC-SVG-20010904/DTD/svg10.dtd">
<svg version="1.0" xmlns="http://www.w3.org/2000/svg"
 width="204.000000pt" height="204.000000pt" viewBox="0 0 204.000000 204.000000"
 preserveAspectRatio="xMidYMid meet">
<metadata>
Created by potrace 1.14, written by Peter Selinger 2001-2017
</metadata>
<g transform="translate(0.000000,204.000000) scale(0.100000,-0.100000)"
fill="#000000" stroke="none">
<path d="M970 2034 c0 -6 -24 -10 -64 -10 -35 1 -62 -3 -59 -7 3 -5 -4 -6 -16
-2 -12 3 -21 2 -21 -3 0 -6 -11 -9 -25 -8 -13 2 -22 0 -20 -4 3 -4 -8 -10 -23
-13 -54 -10 -76 -17 -86 -27 -5 -5 -18 -10 -28 -10 -10 0 -18 -5 -18 -12 0 -6
-3 -8 -7 -5 -3 4 -12 2 -20 -4 -7 -6 -13 -8 -13 -5 0 4 -13 -2 -29 -13 -16
-12 -33 -21 -39 -21 -5 0 -22 -12 -38 -27 -16 -15 -31 -25 -34 -24 -9 5 -200
-182 -200 -195 0 -6 -6 -14 -13 -17 -14 -5 -93 -137 -90 -149 2 -4 0 -8 -5 -8
-4 0 -12 -12 -18 -27 -16 -40 -27 -67 -29 -75 -2 -5 -4 -10 -5 -13 -1 -3 -3
-8 -4 -12 -2 -5 -8 -28 -15 -53 -7 -25 -15 -56 -18 -70 -2 -14 -8 -41 -13 -60
-10 -39 -7 -261 4 -300 4 -14 8 -29 10 -35 2 -5 6 -23 10 -40 21 -83 95 -256
123 -283 7 -8 11 -18 8 -23 -4 -5 -3 -9 2 -9 4 0 19 -17 33 -38 31 -46 185
-202 200 -202 6 0 8 -5 4 -12 -4 -6 -3 -8 3 -5 6 4 21 -2 33 -13 13 -11 27
-20 31 -20 4 0 15 -7 23 -16 9 -8 25 -17 37 -19 12 -3 29 -11 39 -20 9 -8 24
-15 34 -15 9 0 14 -4 11 -10 -3 -6 4 -10 17 -10 13 0 34 -8 47 -17 14 -9 21
-11 17 -5 -5 8 -2 10 8 6 9 -3 13 -11 9 -17 -3 -6 -1 -7 5 -3 6 4 21 2 33 -5
17 -9 20 -8 13 3 -6 11 -5 11 9 -1 9 -7 17 -10 17 -6 0 4 7 2 15 -5 12 -10 15
-10 15 1 0 9 3 10 8 4 7 -10 38 -16 92 -19 14 -1 31 -5 39 -10 9 -6 12 -5 8 1
-4 7 19 10 68 9 42 0 77 3 79 9 3 6 5 4 5 -2 1 -7 6 -13 12 -13 5 0 8 4 4 9
-3 6 11 9 35 7 22 -2 40 1 40 6 0 6 7 8 15 4 8 -3 15 -2 15 3 0 4 6 8 13 9 44
6 57 10 71 21 13 11 16 11 16 0 0 -11 2 -11 10 1 5 8 10 11 10 5 0 -5 7 -2 14
8 8 10 16 18 18 17 11 -5 58 14 58 24 0 6 5 4 10 -4 8 -13 10 -12 10 3 0 10 5
15 10 12 6 -3 13 1 16 9 3 9 10 13 15 10 5 -3 9 0 9 6 0 6 4 9 8 6 5 -3 19 4
30 15 12 11 22 16 22 12 0 -4 7 1 16 12 8 11 18 20 22 20 4 0 16 9 27 20 12
11 35 31 53 45 47 36 194 237 197 270 1 3 11 25 23 49 12 24 19 48 16 52 -3 5
0 9 6 9 7 0 10 7 6 15 -3 8 -1 15 4 15 6 0 10 8 10 18 0 10 3 22 7 26 7 7 11
31 16 89 1 15 4 27 7 27 3 0 6 21 7 46 1 25 8 53 15 62 7 9 8 13 2 9 -7 -4
-11 10 -11 41 -1 82 -8 162 -13 162 -3 0 -7 16 -8 36 -4 49 -6 58 -14 65 -4 3
-9 18 -11 35 -2 16 -11 43 -20 60 -9 17 -13 34 -10 38 4 3 1 6 -5 6 -7 0 -12
3 -11 8 2 15 -14 52 -23 52 -5 0 -6 5 -3 10 3 6 1 10 -4 10 -6 0 -11 4 -11 9
0 14 -62 111 -71 111 -4 0 -10 8 -13 18 -3 9 -21 34 -40 54 -19 20 -31 40 -27
43 3 4 2 5 -4 4 -10 -4 -37 16 -81 59 -13 12 -27 22 -32 22 -5 0 -17 9 -27 20
-10 11 -22 17 -26 14 -5 -3 -9 -1 -9 5 0 6 -11 13 -25 17 -14 3 -22 10 -19 15
3 5 -2 9 -10 9 -9 0 -30 8 -48 18 -59 33 -141 61 -185 64 -7 1 -13 4 -13 8 0
7 -9 9 -57 13 -18 1 -33 4 -33 7 0 3 -39 5 -87 5 -49 0 -91 5 -95 10 -5 6 -8
6 -8 -1z"/>
</g>
</svg>
